<?xml version="1.0" encoding="UTF-8" standalone="no"?>
<!-- Created with Inkscape (http://www.inkscape.org/) -->

<svg
   xmlns:dc="http://purl.org/dc/elements/1.1/"
   xmlns:cc="http://creativecommons.org/ns#"
   xmlns:rdf="http://www.w3.org/1999/02/22-rdf-syntax-ns#"
   xmlns:svg="http://www.w3.org/2000/svg"
   xmlns="http://www.w3.org/2000/svg"
   xmlns:sodipodi="http://sodipodi.sourceforge.net/DTD/sodipodi-0.dtd"
   xmlns:inkscape="http://www.inkscape.org/namespaces/inkscape"
   width="128"
   height="128"
   id="svg5692"
   version="1.1"
   inkscape:version="0.92.2 (5c3e80d, 2017-08-06)"
   sodipodi:docname="mActionNewVirtualLayer.svg"
   inkscape:export-filename="D:\Repositories\QGIS_Plugins\virtual-raster-builder\vrtbuilder\icon.png"
   inkscape:export-xdpi="67.5"
   inkscape:export-ydpi="67.5">
  <title
     id="title2829">GIS icon theme 0.2</title>
  <defs
     id="defs5694">
    <inkscape:perspective
       sodipodi:type="inkscape:persp3d"
       inkscape:vp_x="0 : 16 : 1"
       inkscape:vp_y="0 : 1000 : 0"
       inkscape:vp_z="32 : 16 : 1"
       inkscape:persp3d-origin="16 : 10.666667 : 1"
       id="perspective3486" />
    <inkscape:perspective
       id="perspective3496"
       inkscape:persp3d-origin="0.5 : 0.33333333 : 1"
       inkscape:vp_z="1 : 0.5 : 1"
       inkscape:vp_y="0 : 1000 : 0"
       inkscape:vp_x="0 : 0.5 : 1"
       sodipodi:type="inkscape:persp3d" />
    <inkscape:perspective
       id="perspective3600"
       inkscape:persp3d-origin="0.5 : 0.33333333 : 1"
       inkscape:vp_z="1 : 0.5 : 1"
       inkscape:vp_y="0 : 1000 : 0"
       inkscape:vp_x="0 : 0.5 : 1"
       sodipodi:type="inkscape:persp3d" />
    <inkscape:perspective
       id="perspective7871"
       inkscape:persp3d-origin="0.5 : 0.33333333 : 1"
       inkscape:vp_z="1 : 0.5 : 1"
       inkscape:vp_y="0 : 1000 : 0"
       inkscape:vp_x="0 : 0.5 : 1"
       sodipodi:type="inkscape:persp3d" />
    <inkscape:perspective
       id="perspective8710"
       inkscape:persp3d-origin="0.5 : 0.33333333 : 1"
       inkscape:vp_z="1 : 0.5 : 1"
       inkscape:vp_y="0 : 1000 : 0"
       inkscape:vp_x="0 : 0.5 : 1"
       sodipodi:type="inkscape:persp3d" />
    <inkscape:perspective
       id="perspective9811"
       inkscape:persp3d-origin="0.5 : 0.33333333 : 1"
       inkscape:vp_z="1 : 0.5 : 1"
       inkscape:vp_y="0 : 1000 : 0"
       inkscape:vp_x="0 : 0.5 : 1"
       sodipodi:type="inkscape:persp3d" />
    <inkscape:perspective
       id="perspective4762"
       inkscape:persp3d-origin="0.5 : 0.33333333 : 1"
       inkscape:vp_z="1 : 0.5 : 1"
       inkscape:vp_y="0 : 1000 : 0"
       inkscape:vp_x="0 : 0.5 : 1"
       sodipodi:type="inkscape:persp3d" />
  </defs>
  <sodipodi:namedview
     id="base"
     pagecolor="#ffffff"
     bordercolor="#666666"
     borderopacity="1.0"
     inkscape:pageopacity="0.0"
     inkscape:pageshadow="2"
     inkscape:zoom="5.6568542"
     inkscape:cx="68.684876"
     inkscape:cy="67.566424"
     inkscape:current-layer="layer2"
     showgrid="true"
     inkscape:grid-bbox="true"
     inkscape:document-units="px"
     borderlayer="false"
     inkscape:window-width="1920"
     inkscape:window-height="1018"
     inkscape:window-x="-8"
     inkscape:window-y="-8"
     inkscape:window-maximized="1"
     inkscape:snap-global="true"
     showguides="true"
     inkscape:guide-bbox="true"
     inkscape:snap-object-midpoints="false"
     inkscape:snap-grids="true"
     inkscape:object-paths="false"
     objecttolerance="5"
     gridtolerance="5"
     guidetolerance="5">
    <inkscape:grid
       type="xygrid"
       id="grid5700"
       empspacing="5"
       visible="true"
       enabled="true"
       snapvisiblegridlinesonly="true"
       dotted="true"
       originx="2.5"
       originy="2.5"
       spacingx="1"
       spacingy="1" />
  </sodipodi:namedview>
  <metadata
     id="metadata5697">
    <rdf:RDF>
      <cc:Work
         rdf:about="">
        <dc:format>image/svg+xml</dc:format>
        <dc:type
           rdf:resource="http://purl.org/dc/dcmitype/StillImage" />
        <dc:title>GIS icon theme 0.2</dc:title>
        <dc:creator>
          <cc:Agent>
            <dc:title>Robert Szczepanek</dc:title>
          </cc:Agent>
        </dc:creator>
        <dc:rights>
          <cc:Agent>
            <dc:title>Robert Szczepanek</dc:title>
          </cc:Agent>
        </dc:rights>
        <dc:subject>
          <rdf:Bag>
            <rdf:li>GIS icons</rdf:li>
          </rdf:Bag>
        </dc:subject>
        <dc:coverage>GIS icons</dc:coverage>
        <dc:description>http://robert.szczepanek.pl/</dc:description>
        <cc:license
           rdf:resource="http://creativecommons.org/licenses/by-sa/4.0/" />
      </cc:Work>
      <cc:License
         rdf:about="http://creativecommons.org/licenses/by-sa/4.0/">
        <cc:permits
           rdf:resource="http://creativecommons.org/ns#Reproduction" />
        <cc:permits
           rdf:resource="http://creativecommons.org/ns#Distribution" />
        <cc:requires
           rdf:resource="http://creativecommons.org/ns#Notice" />
        <cc:requires
           rdf:resource="http://creativecommons.org/ns#Attribution" />
        <cc:permits
           rdf:resource="http://creativecommons.org/ns#DerivativeWorks" />
        <cc:requires
           rdf:resource="http://creativecommons.org/ns#ShareAlike" />
      </cc:License>
    </rdf:RDF>
  </metadata>
  <g
     inkscape:groupmode="layer"
     id="layer2"
     inkscape:label="Layer"
     style="display:inline"
     transform="translate(0,96)">
    <rect
       style="fill:none;stroke:none;stroke-width:5.31249952"
       id="rect6554"
       width="103.59373"
       height="103.59373"
       x="0"
       y="-95.5" />
    <rect
       style="display:inline;fill:none;fill-opacity:1;fill-rule:nonzero;stroke:#6d97c4;stroke-width:5.31249952;stroke-miterlimit:4;stroke-dasharray:none;stroke-opacity:1"
       id="rect6419"
       width="34.531242"
       height="34.531242"
       x="37.272903"
       y="-92.073112" />
    <rect
       style="display:inline;fill:none;fill-opacity:1;fill-rule:nonzero;stroke:#6d97c4;stroke-width:5.31249952;stroke-miterlimit:4;stroke-dasharray:none;stroke-opacity:1"
       id="rect6419-6"
       width="34.531242"
       height="34.531242"
       x="71.804153"
       y="-92.073112" />
    <rect
       style="display:inline;fill:none;fill-opacity:1;fill-rule:nonzero;stroke:#6d97c4;stroke-width:5.31249952;stroke-miterlimit:4;stroke-dasharray:none;stroke-opacity:1"
       id="rect6419-6-9"
       width="34.531242"
       height="34.531242"
       x="37.272903"
       y="-57.541862"
       inkscape:transform-center-x="-17.265617"
       inkscape:transform-center-y="-23.020826" />
    <rect
       style="display:inline;fill:none;fill-opacity:1;fill-rule:nonzero;stroke:#6d97c4;stroke-width:5.31249952;stroke-miterlimit:4;stroke-dasharray:none;stroke-opacity:1"
       id="rect6419-0"
       width="34.531242"
       height="34.531242"
       x="71.804153"
       y="-57.541862" />
    <rect
       style="display:inline;fill:none;fill-opacity:1;fill-rule:nonzero;stroke:#6d97c4;stroke-width:5.31249952;stroke-miterlimit:4;stroke-dasharray:none;stroke-opacity:1"
       id="rect6419-6-7"
       width="34.531242"
       height="34.531242"
       x="2.741658"
       y="-92.073112" />
    <rect
       style="display:inline;fill:none;fill-opacity:1;fill-rule:nonzero;stroke:#6d97c4;stroke-width:5.31249952;stroke-miterlimit:4;stroke-dasharray:none;stroke-opacity:1"
       id="rect6419-3"
       width="34.531242"
       height="34.531242"
       x="2.741658"
       y="-57.541862" />
    <rect
       style="display:inline;fill:none;fill-opacity:1;fill-rule:nonzero;stroke:#6d97c4;stroke-width:5.31249952;stroke-miterlimit:4;stroke-dasharray:none;stroke-opacity:1"
       id="rect6419-5"
       width="34.531242"
       height="34.531242"
       x="37.272903"
       y="-23.010612" />
    <rect
       style="display:inline;fill:none;fill-opacity:1;fill-rule:nonzero;stroke:#6d97c4;stroke-width:5.31249952;stroke-miterlimit:4;stroke-dasharray:none;stroke-opacity:1"
       id="rect6419-6-6"
       width="34.531242"
       height="34.531242"
       x="2.741658"
       y="-23.010612" />
    <g
       style="display:inline"
       transform="matrix(3.6778844,0,0,3.6778844,10.037875,-85.692301)"
       id="g3773">
      <rect
         style="fill:#c4a000"
         height="13"
         rx="2.6149371"
         ry="2.6149368"
         width="13"
         x="19"
         y="19"
         id="rect3767" />
      <path
         style="opacity:0.3;fill:#fcffff;fill-rule:evenodd"
         inkscape:connector-curvature="0"
         d="m 20.3,25.499999 h 10.4 c 0,0 0,0 0,-2.6 C 30.7,20.3 30.05,20.3 25.5,20.3 c -4.55,0 -5.2,0 -5.2,2.599999 0,2.6 0,2.6 0,2.6 z"
         id="path3769" />
      <path
         style="fill:#ffffff;stroke:#ffffff;stroke-width:0.49735793"
         inkscape:connector-curvature="0"
         d="m -6.4566626,-5.8131979 v 0.76 c 0,1.039999 -0.1600005,1.7600009 -0.64,2.68 -0.7199993,1.55999844 -0.8,1.7600006 -0.8,2.36 0,1.1599988 0.880001,2.12 1.92,2.12 1.0799989,0 1.92,-0.9600012 1.92,-2.16 0,-0.3999996 -0.1200003,-0.92000052 -0.4,-1.44 -0.9199991,-1.959998 -1,-2.2800013 -1,-3.56 v -0.76 l 0.64,0.4 c 0.8399992,0.4799995 1.4800006,1.0400008 2.04,1.84 1.3199987,1.7999982 1.7600011,2.16 2.84,2.16 0.999999,0 1.8,-0.760001 1.8,-1.76 0,-1.2399988 -1.04000156,-2.1600001 -2.6,-2.28 -1.959998,-0.1199999 -2.3200012,-0.2000007 -3.56,-0.88 l -0.64,-0.36 0.64,-0.36 c 0.9199991,-0.5199995 1.600001,-0.76 2.64,-0.8 1.5999984,-0.1599998 1.72000048,-0.1600002 2.2,-0.36 0.7999992,-0.3999996 1.32,-1.1200008 1.32,-1.9600001 0,-1.039999 -0.840001,-1.84 -1.88,-1.84 -0.87999912,0 -1.6000006,0.440001 -2.24,1.4 -1.1199989,1.6799984 -1.3600012,1.9200008 -2.56,2.6400001 l -0.64,0.4 v -0.76 c 0,-0.999999 0.1600005,-1.7600011 0.64,-2.6800001 0.7599992,-1.599998 0.8,-1.76 0.8,-2.32 0,-1.199999 -0.8800011,-2.16 -1.96,-2.16 -1.039999,0 -1.92,0.960001 -1.92,2.12 0,0.44 0.1200003,0.960001 0.4,1.48 0.959999,1.9999981 1.04,2.2800014 1.04,3.5600001 v 0.76 l -0.64,-0.4 c -0.9199991,-0.5199995 -1.4400006,-1.0400008 -2.04,-1.88 -0.7999992,-1.1999991 -0.8000003,-1.2000001 -1.1200004,-1.5200001 -0.439999,-0.399999 -1.08,-0.64 -1.6,-0.64 -1.079999,0 -1.92,0.840001 -1.92,1.84 0,1.2399989 1.000002,2.1200002 2.56,2.2400001 2.0399984,0.1199999 2.3600016,0.2000007 3.6000004,0.88 l 0.64,0.36 -0.64,0.4 c -0.8399992,0.4799995 -1.640001,0.7200001 -2.6400004,0.8 -1.559998,0.08 -1.68,0.1200002 -2.2,0.32 -0.799999,0.3599996 -1.32,1.1200008 -1.32,1.96 0,0.999999 0.840001,1.84 1.88,1.84 0.88,0 1.640001,-0.4800009 2.2400004,-1.4 1.0799989,-1.5999984 1.4000012,-1.9600007 2.56,-2.64 z"
         transform="matrix(0.60271547,0,0,0.60365952,29.090173,29.540413)"
         id="path3771" />
    </g>
  </g>
</svg>
